<svg width="24" height="26" viewBox="0 0 24 26" fill="none" xmlns="http://www.w3.org/2000/svg">
<path fill-rule="evenodd" clip-rule="evenodd" d="M11.9999 6C7.45989 6 3.34829 8.51954 1.12595 12.515L0.855469 13.0013L1.12612 13.4874C3.34941 17.4813 7.46073 20 11.9999 20C16.5398 20 20.6514 17.4805 22.8738 13.485L23.1443 12.9987L22.8736 12.5126C20.6503 8.51866 16.539 6 11.9999 6ZM12.3156 8.00487C15.7794 8.11191 18.9217 9.9751 20.7989 12.9352L20.8379 12.999L20.7989 13.0632C18.8655 16.114 15.5884 18 11.9999 18L11.6841 17.9951C8.22029 17.8881 5.07804 16.0249 3.20077 13.0648L3.16086 13L3.2008 12.9368C5.13423 9.88598 8.41129 8 11.9999 8L12.3156 8.00487ZM11.9999 9C9.79072 9 7.99986 10.7909 7.99986 13C7.99986 15.2091 9.79072 17 11.9999 17C14.209 17 15.9999 15.2091 15.9999 13C15.9999 10.7909 14.209 9 11.9999 9ZM11.9999 11C13.1044 11 13.9999 11.8954 13.9999 13C13.9999 14.1046 13.1044 15 11.9999 15C10.8953 15 9.99986 14.1046 9.99986 13C9.99986 11.8954 10.8953 11 11.9999 11Z" fill="white"/>
</svg>
